<svg width="782" height="589" viewBox="0 0 782 589" fill="none" xmlns="http://www.w3.org/2000/svg">
<path d="M408.692 96.6725C407.652 93.8139 405.962 91.2151 403.622 88.8763C398.553 84.5884 391.923 82.6393 385.683 84.1986C378.664 85.368 374.374 91.2151 370.084 96.6725C365.794 102.13 361.505 108.367 354.876 110.316C349.416 111.875 344.346 110.705 339.277 107.977C334.207 105.248 329.528 100.96 324.848 97.0622C320.558 93.5539 315.879 89.6557 310.419 87.7067C304.959 85.7576 299.5 86.9272 294.82 90.0457C289.75 93.5539 285.851 98.6214 281.951 102.909C277.661 107.197 273.371 111.485 267.911 112.654C262.062 114.214 256.602 112.265 252.312 108.367C247.633 104.469 244.513 99.0113 240.613 93.9438C237.103 89.2661 233.204 84.5883 227.354 83.4189C216.825 81.08 207.855 91.2151 200.446 97.8418C193.036 105.248 183.288 114.214 171.978 111.485C157.549 108.367 152.09 90.4353 137.661 87.7067C124.791 85.7576 111.143 93.554 107.633 106.418C106.853 108.367 104.123 107.197 104.513 105.248C105.553 101.87 106.982 98.8812 108.802 96.2825C116.991 85.7577 132.2 81.08 143.9 86.5373C150.919 89.6558 155.599 95.8927 161.059 100.96C165.739 105.638 171.198 109.536 178.217 108.367C183.287 107.587 187.967 104.469 192.257 100.96C196.937 97.0622 200.836 92.7744 205.516 88.8763C209.415 85.368 214.095 81.8597 219.165 80.3005C224.624 79.1311 230.084 79.9106 234.764 83.4189C239.833 86.9272 243.343 91.9947 246.853 97.0622C250.363 101.74 254.263 107.197 259.722 109.146C271.812 113.824 280.391 99.0111 287.8 91.6048C292.09 87.7067 297.16 83.8087 303.399 83.4189C309.249 83.0291 314.319 85.3679 318.998 88.4863C324.458 91.9946 328.748 96.2825 333.817 100.181C338.107 103.689 342.787 107.197 348.246 107.587C354.876 108.367 360.335 104.079 364.235 99.0112C368.914 93.5539 372.425 86.9273 378.664 83.0292C390.364 76.4024 407.132 82.6392 411.812 95.5028C412.592 97.4519 409.472 99.0113 408.692 96.6725Z" fill="#288773"/>
<path d="M769.808 482.193C746.409 516.496 690.253 512.208 655.156 512.988C651.646 512.988 645.407 506.751 642.677 506.751C637.217 506.751 632.927 506.751 629.808 506.751L634.098 539.105L641.116 588.221H216.826C216.436 499.734 216.046 323.931 217.606 308.728C219.556 293.136 273.762 239.342 301.06 213.225C307.559 206.988 312.889 201.921 317.049 198.023C308.21 185.809 305.87 171.646 310.029 155.534C317.049 126.298 344.737 91.6053 435.601 84.9785C518.665 78.3518 534.654 97.0624 547.133 116.943C560.392 138.382 552.983 165.669 549.083 176.973C548.043 179.312 547.393 180.741 547.133 181.261C547.133 181.651 590.42 174.244 625.517 213.225C627.077 215.044 628.767 216.993 630.587 219.072C636.437 226.869 643.847 235.834 651.646 245.969C692.594 296.254 753.429 364.861 765.518 386.69C780.337 413.197 791.646 450.228 769.808 482.193Z" fill="#39BEA3"/>
<path d="M649.306 432.297C645.406 427.879 641.637 423.591 637.997 419.433C624.218 404.101 610.569 388.769 597.05 373.436C595.88 371.877 598.219 369.928 599.389 371.487C603.289 375.645 607.188 379.933 611.088 384.351C624.607 399.683 638.127 414.886 651.646 429.958C653.206 431.517 650.866 433.856 649.306 432.297Z" fill="#9BE8D8"/>
<path d="M629.807 506.75L634.097 539.105C627.468 538.715 620.447 537.935 613.818 536.376C595.879 532.088 578.721 524.682 560.782 520.784C556.362 519.484 551.942 518.575 547.522 518.055C545.183 517.795 542.844 517.665 540.504 517.665C538.554 517.665 536.604 517.665 534.654 516.886C529.974 515.326 529.974 509.479 529.194 505.191C528.674 503.112 528.284 501.033 528.024 498.954C526.984 498.954 525.945 499.084 524.905 499.344C528.415 500.124 528.024 503.632 526.074 503.242C523.734 502.463 521.785 501.293 520.615 499.344C519.835 498.175 520.225 496.615 521.394 496.615C523.474 496.356 525.424 495.966 527.244 495.446C526.724 493.367 526.334 491.158 526.074 488.819C525.684 486.48 528.804 486.091 529.194 488.04C529.454 490.379 529.844 492.717 530.364 495.056C539.723 493.497 549.083 492.198 558.442 491.158C569.101 490.119 579.891 489.339 590.81 488.819C601.729 488.04 612.649 487.65 623.178 489.209C627.858 489.989 632.147 491.158 635.657 494.277C638.777 497.005 640.726 500.903 642.286 505.191C637.087 506.231 632.927 506.75 629.807 506.75Z" fill="#9BE8D8"/>
<path d="M435.6 92.3845C435.6 100.181 435.211 108.367 435.211 116.163C435.211 122.79 435.211 129.416 432.091 135.263C425.461 148.517 407.522 148.517 395.433 146.568C381.394 144.619 367.355 139.551 354.486 133.704C344.606 129.286 334.987 124.089 325.628 118.112C324.848 118.112 324.068 118.112 323.288 118.112C321.728 117.852 320.299 117.462 318.999 116.942C316.659 115.773 315.098 113.824 313.538 111.875C311.979 110.316 310.419 107.977 310.029 105.638C309.639 104.079 309.64 102.13 310.419 100.571C308.47 96.2828 307.689 91.6051 308.079 86.9274C303.01 85.3681 297.16 82.6395 295.6 77.1822C294.43 73.2841 295.21 68.9961 298.33 66.6573C296.77 64.5783 295.47 62.3694 294.43 60.0305C292.09 54.5732 292.481 47.9464 296.77 43.6585C299.11 41.7095 301.45 41.3196 304.57 40.9298C306.52 40.9298 307.689 40.54 308.859 38.9808C309.639 37.8114 310.419 36.6421 311.199 35.4727C319.389 24.558 331.087 17.9313 342.786 12.0842C355.656 5.45745 369.305 0 383.734 0C396.603 0 409.082 5.06769 418.052 14.8129C425.851 23.7785 430.921 35.0827 433.65 46.777C437.16 61.5897 436.38 77.182 435.6 92.3845Z" fill="#7E6032"/>
<path d="M478.888 119.281C474.598 122.01 469.528 122.01 465.238 123.959C461.339 125.908 457.049 128.247 452.759 130.585C442.23 136.043 431.701 141.5 421.171 147.347C400.893 159.042 381.394 172.295 364.235 190.226C363.845 190.616 363.065 191.006 362.285 191.006C361.115 191.006 360.336 190.226 359.946 189.057C350.976 179.311 341.227 168.787 343.567 154.364C345.907 141.89 356.046 130.585 366.575 124.349C375.154 119.281 385.294 116.163 395.043 114.214C398.683 112.914 402.193 111.745 405.572 110.705C417.272 107.587 428.581 105.248 441.84 104.858C476.938 104.079 487.467 108.756 488.246 109.536C490.196 113.044 482.397 116.942 478.888 119.281Z" fill="#9BE8D8"/>
<path d="M430.141 149.297C414.542 158.652 399.333 168.657 384.514 179.312C384.254 178.792 383.993 178.272 383.733 177.753C383.473 176.973 383.214 176.323 382.954 175.804C380.874 171.126 378.795 166.448 376.715 161.77C375.675 159.431 374.504 156.963 373.204 154.364C372.034 149.686 371.255 146.178 370.475 143.06C370.475 141.89 371.254 141.111 372.034 140.721C373.594 125.129 383.344 111.485 397.773 106.418C399.593 105.638 401.412 105.118 403.232 104.858C403.622 107.977 404.012 111.095 405.182 113.824C407.522 118.502 413.372 120.841 416.492 115.773C417.012 115.513 417.402 114.994 417.662 114.214C418.052 112.655 418.441 110.705 418.831 109.146C419.091 107.847 419.221 106.678 419.221 105.638C424.291 109.146 425.071 115.383 425.461 120.451C426.501 128.767 427.801 136.953 429.361 145.009C429.621 146.568 429.881 147.997 430.141 149.297Z" fill="#FFC8BC"/>
<path d="M421.562 100.18C421.562 105.248 420.781 109.926 419.222 114.214C417.662 123.179 414.542 131.365 409.863 138.382C404.013 147.347 395.824 154.364 386.464 158.652C383.344 160.211 380.095 161.25 376.715 161.77C370.085 163.329 363.455 163.329 356.826 161.38C347.077 158.652 338.108 152.805 331.868 144.619C328.748 140.721 326.018 136.043 324.458 131.365C323.678 128.766 323.158 126.298 322.898 123.959C322.508 120.451 322.509 117.332 322.119 113.824C321.729 110.315 320.948 107.587 319.388 104.468C317.828 101.74 316.658 98.6213 315.488 95.8927C314.188 91.215 313.669 86.4073 313.929 81.4697C316.009 80.1704 317.959 78.871 319.778 77.5716C321.078 76.2723 322.378 75.1028 323.678 74.0633C333.427 79.1308 343.177 80.6902 352.926 79.131C364.625 77.5717 375.544 72.5041 385.684 67.0468C387.503 66.0073 389.324 64.838 391.144 63.5386C400.893 55.3527 395.433 63.9283 398.553 70.9448C399.723 73.6735 403.233 74.8429 406.352 74.0633C407.912 79.9104 407.522 86.5373 409.472 92.7742C410.252 94.7233 411.812 98.6213 414.152 99.7907C416.102 100.57 421.562 95.8926 421.562 100.18Z" fill="#FFC8BC"/>
<path d="M441.061 97.0623C441.061 107.197 433.261 115.383 423.122 115.383C421.822 115.383 420.522 115.123 419.222 114.604C418.052 112.655 418.441 110.705 418.831 109.146C419.351 106.548 419.742 103.949 420.002 101.35C420.002 100.57 420.132 99.9208 420.392 99.4011C421.172 92.7743 421.561 85.758 421.951 79.1312C433.261 78.3516 441.061 86.5375 441.061 97.0623Z" fill="#FFC8BC"/>
<path d="M387.244 94.334C387.244 95.1136 386.464 95.8933 385.684 95.8933C379.964 95.8933 374.245 96.1532 368.525 96.6729C367.355 96.6729 366.575 95.8933 366.575 94.7239C365.795 90.0462 371.645 88.0971 374.765 88.0971C379.055 87.7073 383.345 88.8767 386.464 91.2155C387.634 91.9952 387.634 92.7747 387.244 94.334Z" fill="#7E6032"/>
<path d="M380.614 117.722C380.225 118.502 379.444 118.892 379.054 118.892C378.274 119.281 377.494 118.892 377.104 118.112C376.714 117.722 376.714 117.333 375.934 116.163C375.544 114.994 375.154 113.824 375.154 112.265C375.414 111.485 375.804 110.706 376.324 109.926C377.884 108.757 379.835 109.926 380.614 111.095C381.394 111.875 381.784 113.045 381.784 114.214C382.174 115.773 381.784 116.943 380.614 117.722Z" fill="#1F1F1F"/>
<path d="M342.397 118.502C342.007 118.112 341.617 117.722 341.227 114.214C341.617 113.045 342.786 111.875 343.956 112.655C345.126 113.045 345.906 113.824 346.686 115.384C347.076 116.163 347.467 116.943 347.467 119.671C347.467 119.671 347.466 119.671 342.397 118.502Z" fill="#1F1F1F"/>
<path d="M343.566 98.6219C343.177 99.4015 342.397 99.7912 341.617 99.7912C337.717 99.0116 333.817 98.2319 329.917 97.4523C328.358 97.0625 325.628 97.4523 324.068 96.2829C322.508 95.5033 321.338 91.6052 323.677 90.4358C330.307 86.9275 339.667 89.6563 343.566 96.6728C343.826 97.4524 343.826 98.1021 343.566 98.6219Z" fill="#7E6032"/>
<path d="M357.995 137.992C354.876 139.162 351.755 136.433 350.585 133.314C349.415 129.416 351.365 125.518 351.755 121.62C352.535 114.993 349.806 108.367 344.346 104.469C342.396 102.91 344.736 99.791 346.686 100.96C351.755 104.859 354.875 110.706 355.655 116.942C356.045 120.451 355.265 123.569 354.485 127.078C354.095 128.637 353.705 130.586 354.485 132.145C354.875 133.704 356.045 134.484 357.605 134.094C359.945 133.315 360.335 137.602 357.995 137.992Z" fill="#EC7373"/>
<path d="M378.274 140.721C375.544 145.399 370.085 148.127 364.625 147.348C363.845 147.348 363.066 146.178 363.066 145.399C363.066 144.229 364.235 143.449 375.154 138.382C375.544 137.212 377.104 137.212 377.884 137.992C378.664 138.772 378.664 139.941 378.274 140.721Z" fill="#EC7373"/>
<path d="M435.991 93.164C430.791 97.0621 425.982 101.48 421.562 106.418C421.172 107.197 420.002 107.587 419.222 106.807C418.442 106.418 418.052 104.858 418.832 104.079C423.251 98.8812 428.191 94.2036 433.651 90.0456C434.431 89.6558 435.99 89.6557 436.38 90.4353C437.16 91.215 436.771 92.7742 435.991 93.164Z" fill="#EC7373"/>
<path d="M469.528 127.078C461.728 131.236 453.929 135.523 446.129 139.941C440.929 142.8 435.6 145.918 430.141 149.297C414.542 158.652 399.333 168.657 384.514 179.312C379.054 183.21 373.724 187.108 368.525 191.006C366.185 192.565 363.845 189.447 366.185 187.888C371.644 183.73 377.234 179.702 382.954 175.804C384.514 174.504 386.073 173.335 387.633 172.295C401.412 162.68 415.322 153.584 429.361 145.009C442.1 137.472 454.969 130.196 467.968 123.18C470.308 122.01 471.867 125.908 469.528 127.078Z" fill="#9BE8D8"/>
<path d="M560.392 333.676C557.272 334.845 556.492 334.455 556.102 334.065C556.882 332.116 557.272 331.727 558.052 331.337C558.832 331.857 559.612 332.636 560.392 333.676Z" fill="#FFC8BC"/>
<path d="M560.392 333.676C556.882 335.235 556.102 334.455 556.102 334.065C556.882 332.116 557.272 331.727 558.052 331.337C558.832 331.857 559.612 332.636 560.392 333.676Z" fill="#FFC8BC"/>
<path d="M66.6858 589V276.764H538.943V589H66.6858Z" fill="#1F1F1F"/>
<path d="M538.163 588.22H67.0752V277.153H538.163V588.22Z" fill="#373737"/>
<path d="M538.163 299.762H67.0752V277.153H538.163V299.762Z" fill="#9BE8D8"/>
<path d="M430.141 448.279L373.595 414.366V346.149L430.141 312.236L487.076 346.149V414.366L430.141 448.279Z" fill="#288773"/>
<path d="M104.902 345.37C100.612 354.335 94.763 364.86 84.6236 367.589C60.4453 373.046 26.1276 342.641 30.0274 323.93C31.9772 313.406 45.6267 309.897 67.4652 299.762C76.0446 295.864 79.5546 257.663 88.134 262.341C96.3234 267.019 102.172 275.594 106.072 284.56C113.872 303.66 113.092 326.659 104.902 345.37Z" fill="#FFC8BC"/>
<path d="M258.162 588.22H67.0752V277.153H258.162V588.22Z" fill="#131313"/>
<path d="M666.075 509.089C650.216 509.609 634.357 510.519 618.498 511.818C603.289 512.987 588.08 515.326 572.481 514.936C555.322 514.157 538.554 509.089 526.854 495.446C506.186 470.888 518.664 443.212 518.274 414.756C517.754 395.006 516.715 375.255 515.155 355.505C514.765 350.827 514.375 346.15 513.985 341.862C513.595 337.574 513.595 333.286 514.765 329.388C515.545 325.49 517.494 322.371 520.224 319.643C520.614 318.083 520.614 316.914 520.614 315.355C520.614 308.728 523.344 300.932 529.584 298.593C533.874 297.034 537.384 298.203 540.504 300.152C542.843 298.593 545.963 298.203 549.083 298.983C553.372 300.152 556.102 303.271 558.052 307.169C560.392 311.847 561.562 316.524 562.732 321.202C564.032 326.919 565.201 332.506 566.241 337.964C567.801 347.839 568.711 357.714 568.971 367.589C568.971 376.165 568.191 385.13 568.191 393.706C568.191 400.723 568.581 408.519 572.481 414.366C577.161 421.383 584.96 423.332 592.76 423.721C602.119 424.501 611.478 423.721 620.837 423.721C630.977 423.332 667.245 419.823 673.094 419.044C675.434 418.654 689.863 449.059 690.643 453.737C692.983 472.447 684.014 508.7 666.075 509.089Z" fill="#FFC8BC"/>
<path d="M348.246 342.641H49.1371V212.835H348.246V342.641Z" fill="#373737"/>
<path d="M211.756 269.747H321.338C324.457 269.747 323.678 272.866 320.948 272.866H211.365C208.245 272.866 209.026 269.747 211.756 269.747Z" fill="#1F1F1F"/>
<path d="M209.806 283.78C210.196 282.611 210.976 282.221 212.536 282.221H234.764C235.934 282.221 236.714 283.39 236.714 284.17C236.324 284.95 235.544 285.339 233.984 285.339H211.756C210.586 285.339 209.806 284.56 209.806 283.78Z" fill="#1F1F1F"/>
<path d="M320.949 284.95H249.974C247.244 284.95 247.634 281.831 250.754 281.831H321.338C324.458 281.831 323.679 284.95 320.949 284.95Z" fill="#1F1F1F"/>
<path d="M278.831 299.762H212.535C209.415 299.762 210.196 296.254 212.926 296.254H279.221C282.341 296.254 281.561 299.762 278.831 299.762Z" fill="#1F1F1F"/>
<path d="M321.728 298.593C321.728 299.763 320.558 300.152 319.388 300.152H294.821C293.651 300.152 292.481 298.983 292.871 298.203C292.871 297.424 294.04 297.034 295.21 297.034H319.778C320.948 297.034 321.728 297.814 321.728 298.593Z" fill="#1F1F1F"/>
<path d="M348.246 204.259V231.936H49.1371V204.259C49.1371 200.881 49.787 197.892 51.087 195.294C51.8669 193.475 52.9061 191.915 54.206 190.616C57.7157 186.328 62.7862 183.599 68.6358 183.599H328.748C339.277 183.599 348.246 192.565 348.246 204.259Z" fill="#736E6E"/>
<path d="M328.222 189H112.777C104.615 189 98 195.658 98 203.87V210.131C98 218.343 104.615 225 112.777 225H328.222C336.384 225 343 218.343 343 210.131V203.87C343 195.658 336.384 189 328.222 189Z" fill="#373737"/>
<path d="M77.9947 189.837H72.9249C64.7406 189.837 58.1057 196.469 58.1057 204.649V210.887C58.1057 219.067 64.7406 225.699 72.9249 225.699H77.9947C86.179 225.699 92.8139 219.067 92.8139 210.887V204.649C92.8139 196.469 86.179 189.837 77.9947 189.837Z" fill="#373737"/>
<path d="M108.022 311.457C106.852 318.084 101.002 321.982 95.1527 324.32C87.7432 327.049 80.3339 329.778 72.9244 332.117C65.5149 334.845 58.496 337.574 51.0865 339.913C48.7467 340.303 46.4066 341.082 44.0668 341.082C43.2868 342.252 42.5067 342.642 40.9468 342.252C39.3869 341.472 37.8272 340.562 36.2673 339.523C35.4874 339.003 34.8374 338.483 34.3174 337.964C31.1977 334.455 29.6372 330.557 28.8572 326.659C28.0773 319.643 31.1971 312.236 36.6567 308.338C39.7765 306.389 42.8963 305.22 46.4061 304.05C50.0458 302.751 53.6857 301.582 57.3255 300.542C64.735 298.593 73.3148 298.593 81.1143 298.203C87.7438 297.813 92.8129 297.424 99.0525 299.763C104.512 302.101 109.192 305.22 108.022 311.457Z" fill="#FFC8BC"/>
<path d="M100.613 276.763C97.8836 279.492 94.7633 281.441 91.2535 283.78C87.6138 286.379 83.8444 288.848 79.9447 291.186C72.6652 296.124 65.3853 301.061 58.1058 305.999C52.2562 309.897 46.017 314.185 38.9975 313.405C38.7375 313.925 38.2179 314.185 37.438 314.185C30.0285 314.965 23.7883 309.118 22.2284 301.711C21.0585 297.423 22.229 293.135 23.7889 288.848C18.3293 288.848 13.6488 284.56 11.309 279.102C8.96914 273.255 9.74927 267.018 12.4791 261.171C15.2089 255.714 19.4992 251.036 23.7889 247.138C28.4686 242.85 32.7577 238.952 37.8274 235.444C47.1867 228.427 58.4961 222.19 70.1953 221.411C76.0449 221.021 81.8945 222.58 85.7943 227.258C89.694 231.936 90.084 237.783 87.7441 242.85C86.1842 246.359 83.8446 249.087 81.1148 251.816C83.7146 251.296 86.3144 250.906 88.9143 250.646C95.1538 249.867 102.173 251.426 105.293 257.663C108.413 264.29 105.293 271.696 100.613 276.763Z" fill="#FFC8BC"/>
<path d="M46.017 201.53C46.017 205.948 46.017 210.496 46.017 215.174C46.017 219.072 46.017 222.97 46.017 226.868C46.017 227.907 46.017 229.077 46.017 230.376C46.017 234.274 46.017 238.173 46.017 242.071C45.627 249.087 43.6772 255.324 38.2175 259.612C35.3577 261.691 32.2374 262.99 28.8576 263.51C29.2476 265.069 28.0782 266.629 26.5183 266.239C21.0587 265.459 17.159 261.561 14.8191 256.883C14.2992 255.584 13.909 254.414 13.649 253.375C13.389 252.595 13.1292 251.946 12.8693 251.426C12.0893 246.748 12.4789 242.071 12.4789 237.393C12.8689 232.325 12.8695 227.648 12.0895 222.58C10.5296 208.547 6.62969 190.616 18.7189 180.091C23.0086 175.803 29.248 174.244 35.0976 175.803C41.7271 177.752 44.8467 183.599 45.6266 190.226C46.4066 193.734 46.017 197.632 46.017 201.53Z" fill="#FFC8BC"/>
<path d="M546.353 390.978C546.353 393.316 542.453 394.096 542.453 391.367C541.933 383.831 541.283 376.425 540.503 369.148C539.984 362.391 539.203 355.765 538.163 349.268C537.383 343.421 536.604 337.184 535.434 331.727C534.264 327.049 531.924 321.981 527.634 320.032C525.294 318.863 522.564 318.473 520.224 319.642C520.614 318.083 520.614 316.914 520.614 315.355C523.344 314.965 526.074 314.965 528.414 316.134C533.484 317.694 536.603 322.371 538.163 327.439C540.113 333.676 540.893 340.302 541.673 346.929C543.753 361.482 545.313 376.165 546.353 390.978Z" fill="#1F1F1F"/>
<path d="M88.5235 247.138C88.0036 248.178 87.3536 249.088 86.5736 249.867C86.0537 250.387 85.6635 250.906 85.4035 251.426C83.8436 251.686 82.2839 252.076 80.724 252.596C77.3443 253.635 73.9651 254.935 70.5853 256.494C60.836 260.392 51.8666 265.459 43.2872 271.696C38.8675 274.815 34.707 278.193 30.8073 281.831C27.2975 284.95 23.3983 288.848 22.6184 293.915C22.2284 296.644 18.3287 296.254 18.7187 293.526C19.8886 287.289 24.1783 282.611 28.468 278.713C44.4569 263.9 63.5654 253.375 83.844 247.528C84.884 247.268 85.9241 247.009 86.964 246.749C87.7439 246.489 88.2635 246.619 88.5235 247.138Z" fill="#373737"/>
<path d="M109.583 310.677C109.583 321.981 98.6631 327.439 89.6937 330.557C78.2545 334.455 66.6856 337.574 54.9864 339.913C52.6466 340.692 52.2562 336.794 54.5961 336.015C66.5552 333.676 78.2545 330.427 89.6937 326.269C93.9834 324.71 98.6634 322.761 101.783 319.643C104.903 316.524 106.853 311.846 105.293 307.948C104.123 303.66 99.8334 301.322 95.9336 300.542C90.864 299.373 85.4043 300.152 80.3347 300.542C70.1954 301.322 59.6659 303.271 49.9166 305.999C42.1171 308.728 34.3173 312.236 30.0276 320.033C29.6376 320.812 28.0783 320.812 27.6883 320.422C26.5184 319.643 26.518 318.473 27.2979 317.694C32.3676 307.948 42.8969 304.05 52.6462 301.322C63.9554 298.203 76.045 296.254 88.1342 296.254C93.2038 295.864 98.6627 296.254 102.952 299.373C106.852 301.712 109.583 305.999 109.583 310.677Z" fill="#373737"/>
<path d="M489.417 112.265C487.077 116.942 482.398 118.891 478.108 121.23C473.168 123.309 468.229 125.648 463.289 128.247C445.35 136.823 428.191 146.178 411.422 156.703C395.043 167.228 379.054 179.312 364.625 192.955C362.676 194.514 360.335 191.396 362.285 189.447C370.345 182.17 378.794 175.154 387.633 168.397C403.232 156.703 419.612 146.568 436.77 137.212C445.35 132.535 453.93 128.117 462.509 123.959C466.929 121.88 471.348 119.801 475.768 117.722C478.498 116.552 482.397 114.993 484.347 112.265C482.007 111.095 483.567 107.197 485.517 108.367L488.247 109.536C489.027 110.316 489.807 111.095 489.417 112.265Z" fill="#9BE8D8"/>
<path d="M214.485 508.31C213.965 510.389 213.575 512.598 213.315 514.936C212.925 516.496 210.196 516.496 209.806 514.936C205.386 498.305 201.096 481.673 196.936 465.041C189.137 435.935 181.207 406.7 173.148 377.334C165.348 347.969 157.159 318.603 148.58 289.238C148.19 287.288 151.699 286.119 152.089 288.458C156.769 304.83 161.449 321.202 166.129 337.574C174.188 366.939 182.248 396.305 190.307 425.67C197.326 452.697 204.346 479.724 211.365 506.75C212.145 505.581 214.875 506.361 214.485 508.31Z" fill="#9BE8D8"/>
<path d="M361.506 466.6C350.586 469.978 339.797 473.487 329.138 477.125C309.899 483.102 290.661 489.079 271.422 495.056C252.704 501.293 233.595 507.53 214.486 512.597C212.536 512.987 211.366 509.479 213.316 509.089C224.235 506.361 234.764 503.242 245.293 499.734C264.532 493.757 283.771 487.65 303.01 481.413C321.988 475.436 341.097 469.329 360.335 463.092C362.285 462.702 363.455 465.82 361.506 466.6Z" fill="#9BE8D8"/>
<path d="M210.195 530.529C219.026 530.529 226.185 523.024 226.185 513.767C226.185 504.51 219.026 497.005 210.195 497.005C201.365 497.005 194.207 504.51 194.207 513.767C194.207 523.024 201.365 530.529 210.195 530.529Z" fill="#288773"/>
<path d="M366.185 482.192C375.015 482.192 382.174 474.688 382.174 465.431C382.174 456.173 375.015 448.669 366.185 448.669C357.354 448.669 350.196 456.173 350.196 465.431C350.196 474.688 357.354 482.192 366.185 482.192Z" fill="#288773"/>
<path d="M149.36 299.762C158.19 299.762 165.348 292.258 165.348 283.001C165.348 273.743 158.19 266.239 149.36 266.239C140.53 266.239 133.371 273.743 133.371 283.001C133.371 292.258 140.53 299.762 149.36 299.762Z" fill="#288773"/>
<path d="M110.363 396.435H19.889C8.90483 396.435 0 405.336 0 416.315V511.818C0 522.798 8.90483 531.698 19.889 531.698H110.363C121.347 531.698 130.251 522.798 130.251 511.818V416.315C130.251 405.336 121.347 396.435 110.363 396.435Z" fill="#9BE8D8"/>
<path d="M130.641 445.94V511.818C130.641 523.123 122.062 532.088 111.142 532.088H19.1083C8.57903 532.088 0 523.123 0 511.818V493.107C2.8598 491.808 5.71942 490.638 8.57922 489.599C34.3175 480.633 45.6265 498.565 60.0555 489.599C74.8745 481.023 86.1839 449.838 117.772 447.11C122.451 446.85 126.741 446.46 130.641 445.94Z" fill="#288773"/>
<path d="M40.5569 472.058C54.5564 472.058 65.9052 460.365 65.9052 445.941C65.9052 431.517 54.5564 419.823 40.5569 419.823C26.5574 419.823 15.2086 431.517 15.2086 445.941C15.2086 460.365 26.5574 472.058 40.5569 472.058Z" fill="white"/>
<path d="M702.732 491.158C702.342 497.005 701.562 502.462 700.002 507.14C698.052 512.208 692.592 512.987 687.913 513.767C682.713 515.066 677.384 515.976 671.924 516.495C666.205 516.755 660.615 516.755 655.155 516.495C652.555 516.235 649.825 515.846 646.965 515.326C645.015 515.326 642.286 514.936 640.336 513.767C638.386 511.818 638.776 509.479 638.386 507.14C638.386 504.022 638.386 500.903 638.386 497.785C638.386 491.807 638.257 485.831 637.997 479.853C637.477 468.159 636.566 456.465 635.266 444.771C634.876 439.703 634.486 434.636 633.316 429.958C632.146 426.45 630.586 422.942 627.467 420.213C627.077 421.382 625.517 421.382 624.737 420.213C623.957 418.264 624.737 416.704 625.907 415.145C627.467 413.976 629.417 413.196 631.366 412.806C634.096 412.417 636.826 412.027 639.556 411.637C645.276 410.857 650.995 410.208 656.715 409.688C662.174 408.908 667.635 407.739 673.094 407.739C689.083 406.57 698.052 429.178 700.782 440.873C703.902 453.736 703.902 476.345 702.732 491.158Z" fill="#9BE8D8"/>
<path d="M548.693 176.973C548.303 179.312 547.523 180.481 547.133 181.261C535.044 186.328 523.345 190.616 511.256 195.294C498.777 200.231 486.297 205.039 473.818 209.717C451.589 218.682 428.581 226.868 409.863 242.071C408.303 243.24 406.353 240.901 407.913 239.342C418.442 231.156 430.141 224.529 442.23 219.072C453.539 214.005 464.849 209.717 476.158 205.429C488.637 200.751 501.116 195.943 513.595 191.006C525.294 186.328 536.993 182.04 548.693 176.973Z" fill="#9BE8D8"/>
<path d="M88.5237 247.138C88.0038 248.178 87.3538 249.087 86.5739 249.867C86.0539 250.387 85.6637 250.906 85.4038 251.426C83.8439 251.686 82.2842 252.076 80.7243 252.596C81.7642 251.037 82.8043 249.347 83.8443 247.528C89.6939 242.461 88.9143 233.495 84.2346 228.428C79.5549 223.36 72.1452 221.801 65.5157 222.97C58.4962 223.75 51.8666 226.868 46.017 230.377C45.2371 230.896 44.3273 231.416 43.2874 231.936C32.7581 238.563 23.0086 246.749 14.8192 256.884C14.2992 255.584 13.909 254.415 13.649 253.375C17.8088 248.438 22.3585 243.89 27.2981 239.732C33.0177 234.794 39.2575 230.507 46.017 226.868C54.9864 221.801 63.5656 218.682 72.1451 219.462C79.1646 220.242 86.5741 223.75 89.6939 230.766C92.0337 236.224 91.6435 242.461 88.5237 247.138Z" fill="#373737"/>
<path d="M48.7467 227.258C48.7467 229.207 45.6267 228.817 45.6267 226.868C46.1467 216.214 46.277 205.689 46.0171 195.294C46.797 193.475 47.8371 191.916 49.137 190.616C49.527 203.09 49.1367 215.174 48.7467 227.258Z" fill="#1F1F1F"/>
<path d="M276.881 360.183H354.096C356.046 360.183 355.656 363.301 353.706 363.301H276.491C274.541 363.301 274.931 360.183 276.881 360.183Z" fill="#288773"/>
<path d="M275.322 374.215C275.712 373.046 276.491 372.656 277.271 372.656H292.87C293.65 372.656 294.43 373.826 294.43 374.605C294.43 375.385 293.26 375.775 292.48 375.775H276.881C276.101 375.775 275.322 374.995 275.322 374.215Z" fill="#288773"/>
<path d="M353.706 375.385H303.789C301.839 375.385 302.23 372.267 304.179 372.267H354.096C356.046 372.267 355.656 375.385 353.706 375.385Z" fill="#288773"/>
<path d="M324.068 390.198H277.271C275.321 390.198 275.711 386.69 277.661 386.69H324.457C326.407 386.69 326.018 390.198 324.068 390.198Z" fill="#288773"/>
<path d="M354.485 389.029C354.095 390.198 353.316 390.588 352.536 390.588H335.377C334.207 390.588 333.818 389.418 333.818 388.639C333.818 387.859 334.598 387.079 335.767 387.079H352.926C353.706 387.079 354.485 388.249 354.485 389.029Z" fill="#288773"/>
<path d="M273.761 51.455C268.822 52.2346 264.012 52.1047 259.332 51.0653C258.552 50.6754 257.773 49.8958 257.773 49.1162C257.773 48.3366 258.943 47.5569 259.723 47.5569C264.142 48.5964 268.692 48.8563 273.372 48.3365C275.322 47.9467 275.711 51.455 273.761 51.455Z" fill="#1F1F1F"/>
<path d="M279.221 39.3708C273.501 35.4727 267.781 31.4446 262.062 27.2866C259.202 25.4675 256.342 23.5185 253.482 21.4395C252.312 20.6599 251.533 19.4905 251.923 18.3211C252.313 17.1517 253.872 16.7618 256.212 19.4905C256.732 19.7503 257.252 20.1403 257.772 20.6601C259.072 21.4397 260.242 22.2192 261.282 22.9988C263.362 24.5581 265.571 25.9873 267.911 27.2866C272.331 30.4051 276.751 33.5236 281.171 36.6421C282.731 37.8115 280.781 40.5402 279.221 39.3708Z" fill="#1F1F1F"/>
<path d="M290.921 24.1681C290.141 24.9477 288.971 24.9477 288.581 24.1681C286.501 20.2701 284.291 16.2421 281.951 12.0842C281.561 11.3046 281.561 10.5248 282.341 9.74519C282.731 9.35538 283.9 9.35553 284.29 10.1351C286.63 14.0332 288.97 18.0611 291.31 22.2191C291.7 22.9987 291.701 23.7783 290.921 24.1681Z" fill="#1F1F1F"/>
<path d="M641.507 510.649C641.507 512.598 638.387 513.377 638.387 511.038C637.867 503.762 637.476 496.356 637.216 488.819C636.437 475.826 635.657 462.832 634.877 449.839C634.877 443.991 634.877 437.755 632.537 432.297C630.977 428.009 627.467 423.721 622.788 422.942C620.838 422.552 621.228 419.434 623.178 419.823C628.638 420.603 632.927 425.281 635.267 430.348C637.606 436.195 637.607 442.432 637.997 448.669C638.517 455.686 638.906 462.572 639.166 469.329C639.946 483.102 640.727 496.875 641.507 510.649Z" fill="#9BE8D8"/>
</svg>
